<svg xmlns="http://www.w3.org/2000/svg" viewBox="0 0 298.75 84.926"><g fill="#fff"><path d="M28.065 14.586a49.635 49.635 0 0 1 7.016-.739 48.6 48.6 0 0 1 34.7 14.549 61.511 61.511 0 0 0-3.657-20.03q-.846-.489-1.707-.953l-.121-.064q-.76-.406-1.534-.792l-.3-.148a63.278 63.278 0 0 0-1.577-.752l-.109-.05q-.883-.4-1.782-.78l-.119-.049q-.795-.332-1.6-.64l-.364-.139q-.759-.286-1.528-.554l-.246-.086q-.908-.312-1.827-.6l-.14-.041a60.393 60.393 0 0 0-1.639-.476l-.447-.121q-.729-.195-1.465-.373c-.128-.031-.255-.063-.383-.093q-.922-.218-1.854-.408l-.162-.032q-.831-.167-1.672-.309c-.174-.031-.348-.059-.522-.087Q44.321.703 43.61.605c-.165-.023-.329-.048-.5-.07a61.098 61.098 0 0 0-1.881-.22L41.1.305q-.871-.086-1.75-.146a35.82 35.82 0 0 0-.572-.036q-.7-.043-1.4-.07c-.189-.008-.377-.016-.566-.022a61.201 61.201 0 0 0-1.919-.032c-.361 0-.719.012-1.079.018-.28.005-.56.005-.839.014-.189.006-.378.014-.567.022q-.7.027-1.4.07c-.191.011-.382.022-.572.036q-.877.062-1.749.146l-.135.013c-.63.063-1.257.138-1.881.22-.165.022-.33.047-.5.07q-.711.1-1.416.214c-.174.028-.348.056-.521.087q-.84.142-1.673.309l-.162.032q-.933.189-1.854.408c-.128.03-.255.062-.382.093q-.736.179-1.466.373l-.446.121c-.55.152-1.1.309-1.64.476l-.14.041q-.92.285-1.826.6l-.247.086q-.768.269-1.528.554l-.363.139q-.807.309-1.6.64l-.119.049q-.9.376-1.782.78l-.109.05c-.53.243-1.055.495-1.577.752l-.3.148q-.772.386-1.534.792l-.12.064q-.863.464-1.708.953A61.518 61.518 0 0 0-.003 28.782c0 .193-.006.385-.006.578a61.907 61.907 0 0 0 1.357 12.845A61.2 61.2 0 0 0 4.679 52.95 61.892 61.892 0 0 0 34.9 84.926a61.9 61.9 0 0 0 30.307-32.2 48.759 48.759 0 0 0-12.308-7.076 47.254 47.254 0 0 1-4.623 9.357A48.267 48.267 0 0 1 34.9 68.766a48.137 48.137 0 0 1-13.38-13.761 47.371 47.371 0 0 1-7.32-21.683 48.388 48.388 0 0 1-.17-3.965 47.842 47.842 0 0 1 1.326-11.214 48.41 48.41 0 0 1 12.707-3.557"/><path d="M53.895 44.652a48.733 48.733 0 0 1 12.308 7.077 61.152 61.152 0 0 0 3.3-10.814 48.941 48.941 0 0 0-12.9-8.758 48.7 48.7 0 0 0-28.453-3.89 48.394 48.394 0 0 0 3.092 13.254q2.388-.236 4.837-.239a48.492 48.492 0 0 1 17.814 3.37m38.832-2.87h11.906v15.561a33.381 33.381 0 0 1-5.45 1.324 35.4 35.4 0 0 1-5.225.38q-6.795 0-10.377-3.993T80 43.588q0-7.266 4.157-11.332t11.528-4.065a22.3 22.3 0 0 1 8.91 1.848l-2.115 5.091a15.115 15.115 0 0 0-6.836-1.642 8.446 8.446 0 0 0-6.611 2.771 10.753 10.753 0 0 0-2.484 7.453q0 4.886 2 7.463a6.925 6.925 0 0 0 5.82 2.576 20.572 20.572 0 0 0 4.044-.411v-6.262h-5.686v-5.3zm29.382-6.529a10.112 10.112 0 0 1 2.115.185l-.472 5.872a7.171 7.171 0 0 0-1.848-.206 6.643 6.643 0 0 0-4.671 1.54 5.567 5.567 0 0 0-1.673 4.311v11.682H109.3V35.685h4.742l.924 3.859h.308a8.635 8.635 0 0 1 2.884-3.11 7.113 7.113 0 0 1 3.952-1.181m15.277 4.452a3.974 3.974 0 0 0-3.121 1.262 5.842 5.842 0 0 0-1.293 3.582h8.787a5.221 5.221 0 0 0-1.212-3.582 4.1 4.1 0 0 0-3.161-1.262m.883 19.339q-5.544 0-8.664-3.059t-3.121-8.664q0-5.769 2.885-8.92a10.27 10.27 0 0 1 7.976-3.151 10.109 10.109 0 0 1 7.575 2.771 10.484 10.484 0 0 1 2.71 7.658v3.038h-14.8a6.031 6.031 0 0 0 1.581 4.168 5.562 5.562 0 0 0 4.147 1.5 17.187 17.187 0 0 0 3.921-.431 19.58 19.58 0 0 0 3.86-1.375v4.845a14.742 14.742 0 0 1-3.511 1.222 22.2 22.2 0 0 1-4.557.4m10.755-23.361h6.857l4.332 12.913a17.91 17.91 0 0 1 .759 3.983h.124a17.52 17.52 0 0 1 .883-3.983l4.25-12.913h6.712l-9.709 25.888a11.222 11.222 0 0 1-3.809 5.378 9.613 9.613 0 0 1-5.78 1.786 14.51 14.51 0 0 1-3.182-.349v-4.967a10.759 10.759 0 0 0 2.464.266 4.455 4.455 0 0 0 2.9-1.016 6.591 6.591 0 0 0 1.94-3.069l.369-1.129-9.115-22.788zm40.035-2.197a6.49 6.49 0 0 0-5.566 2.7q-1.971 2.7-1.969 7.524 0 10.038 7.535 10.039a23.824 23.824 0 0 0 7.657-1.581v5.335a21.285 21.285 0 0 1-8.253 1.54q-6.552 0-10.019-3.973t-3.471-11.4a18.6 18.6 0 0 1 1.706-8.2 12.3 12.3 0 0 1 4.9-5.4 14.48 14.48 0 0 1 7.484-1.879 20.2 20.2 0 0 1 8.786 2.115l-2.055 5.174a34.134 34.134 0 0 0-3.385-1.4 10.148 10.148 0 0 0-3.346-.595m16.976 13.633a9.632 9.632 0 0 0 1.118 5.153 4 4 0 0 0 3.644 1.745 3.936 3.936 0 0 0 3.6-1.735 9.761 9.761 0 0 0 1.1-5.163 9.462 9.462 0 0 0-1.11-5.112 4.713 4.713 0 0 0-7.246-.011 9.468 9.468 0 0 0-1.109 5.123m15.87 0q0 5.6-2.957 8.766t-8.233 3.161a11.514 11.514 0 0 1-5.83-1.447 9.622 9.622 0 0 1-3.879-4.157 13.974 13.974 0 0 1-1.357-6.323q0-5.625 2.938-8.746t8.253-3.121a11.579 11.579 0 0 1 5.829 1.438 9.6 9.6 0 0 1 3.88 4.126 13.82 13.82 0 0 1 1.356 6.3m16.405-11.864a10.109 10.109 0 0 1 2.114.185l-.471 5.872a7.182 7.182 0 0 0-1.848-.206 6.643 6.643 0 0 0-4.671 1.54 5.565 5.565 0 0 0-1.675 4.311v11.682H225.5V35.685h4.743l.925 3.859h.307a8.641 8.641 0 0 1 2.886-3.11 7.1 7.1 0 0 1 3.951-1.181m15.971 5.01a3.957 3.957 0 0 0-3.388 1.427 8.185 8.185 0 0 0-1.11 4.711v.678q0 3.695 1.1 5.3a3.921 3.921 0 0 0 3.48 1.6 3.494 3.494 0 0 0 3.071-1.776 9.607 9.607 0 0 0 1.138-5.163 9.1 9.1 0 0 0-1.15-5.082 3.6 3.6 0 0 0-3.139-1.693m2.01-5.009a7.425 7.425 0 0 1 6.365 3.171q2.3 3.172 2.3 8.7 0 5.686-2.369 8.807a8.284 8.284 0 0 1-12.8.185h-.431l-1.045 2.525h-4.785V26.693h6.261v7.431q0 1.418-.244 4.538h.244a7.245 7.245 0 0 1 6.508-3.408m22.139 4.451a3.979 3.979 0 0 0-3.122 1.262 5.841 5.841 0 0 0-1.291 3.582h8.787a5.231 5.231 0 0 0-1.212-3.582 4.1 4.1 0 0 0-3.162-1.262m.883 19.339q-5.543 0-8.665-3.059t-3.119-8.664q0-5.769 2.884-8.92a10.269 10.269 0 0 1 7.975-3.151 10.119 10.119 0 0 1 7.577 2.771 10.492 10.492 0 0 1 2.708 7.658v3.038h-14.8a6.027 6.027 0 0 0 1.581 4.168 5.56 5.56 0 0 0 4.146 1.5 17.2 17.2 0 0 0 3.923-.431 19.6 19.6 0 0 0 3.859-1.375v4.845a14.719 14.719 0 0 1-3.51 1.222 22.206 22.206 0 0 1-4.558.4m19.428-.409h-6.261V26.693h6.261v31.944z"/></g></svg>